<svg width="17" height="17" viewBox="0 0 17 17" fill="none" xmlns="http://www.w3.org/2000/svg">
<g clip-path="url(#clip0_46_695)">
<path d="M16.3318 5.19128C15.6859 3.66523 14.6091 2.36855 13.2528 1.45197C11.8968 0.535401 10.2587 -0.000265526 8.50013 9.87416e-08C7.32786 9.87416e-08 6.20832 0.237768 5.19104 0.667981C3.66549 1.31381 2.36855 2.39096 1.45224 3.74694C0.535666 5.10299 -0.000265403 6.7413 2.22072e-07 8.49987C-0.000265403 9.67214 0.237768 10.7914 0.667981 11.8087C1.31381 13.3345 2.39092 14.6315 3.74721 15.5478C5.10299 16.4643 6.7413 17 8.50013 17C9.67214 17 10.7917 16.762 11.8087 16.3318C13.3345 15.6859 14.6312 14.6091 15.5478 13.2528C16.4643 11.8967 17 10.2587 17 8.49987C17 7.32783 16.762 6.20829 16.3318 5.19128ZM9.91625 11.441C9.58621 11.9081 9.84772 12.6135 9.46176 13.0184C9.07322 13.4249 8.88237 13.2973 8.63534 13.8723C8.60452 13.9445 8.18245 14.8932 8.06198 14.5922C8.17139 14.8637 8.07042 15.1196 7.75303 15.1194C7.438 15.1188 7.81024 15.3822 7.50444 15.4571C7.41373 15.4813 7.40373 15.6661 7.44248 15.9038C7.21076 15.8712 6.98195 15.8279 6.75737 15.7744C6.44997 14.8078 6.27971 13.6653 6.27758 13.364C6.2726 12.3203 6.06063 12.7321 5.54897 11.9642C5.2018 11.4417 4.90184 10.8786 4.91659 10.2415C4.9129 10.3562 5.58643 8.6277 5.09953 8.95694C4.50799 9.35737 4.40124 8.40178 3.83211 8.32004C3.54158 8.2784 3.62621 7.96022 3.29853 8.01215C3.00382 8.0588 2.66429 7.75459 2.43917 7.5917C2.29367 7.48571 2.02054 5.96468 1.79729 5.96839C1.48149 5.97022 2.04139 7.02943 1.92618 7.055C1.78726 7.08292 1.57293 6.53962 1.42455 6.07172C1.4802 5.9083 1.54159 5.74696 1.60856 5.58905C2.17583 4.24728 3.12485 3.10479 4.319 2.29815C4.72497 2.02373 5.1599 1.78965 5.61704 1.5983C5.63919 1.5972 5.66156 1.59591 5.68371 1.59272C6.09679 1.54398 7.30758 1.06947 7.64605 1.43932C7.78839 1.59063 5.81553 2.30659 5.75805 2.61372C5.72037 2.81406 6.24441 2.779 6.2903 2.78216C6.817 2.81406 6.13663 3.34126 6.45794 3.43194C6.94168 3.56163 7.42302 1.37076 7.79394 2.48559C7.94554 2.93821 8.59294 2.14343 8.63882 2.70068C8.686 3.28196 9.21719 3.42799 8.22601 3.58587C7.31525 3.73243 8.04545 4.10284 7.44915 4.41465C6.885 4.7099 6.39207 4.84829 5.99376 5.37761C5.54771 5.97128 5.50976 5.95256 5.33368 6.67961C5.23852 7.07369 4.76295 6.41099 4.94803 6.15951C4.88342 6.2465 4.32222 5.97155 4.26577 6.11336C4.15614 6.38831 3.86059 6.23963 3.62761 6.40492C3.33263 6.61317 3.04685 7.2851 3.34289 7.60116C3.57857 7.85476 4.38361 7.05762 4.42764 7.32939C4.46137 7.5387 4.14163 7.68579 4.17669 7.89378C4.22653 8.1943 4.71896 7.80758 4.71896 8.04087C4.7187 8.19114 4.51968 9.01545 4.95384 8.85886C5.18819 8.77449 5.25254 8.95402 5.40039 8.9166C5.6026 8.86547 5.72146 8.39199 5.96375 8.42705C6.25055 8.46842 6.68787 8.59997 6.97651 8.68302C7.44786 8.81882 7.42306 9.21659 7.97084 9.2996C8.53048 9.3845 8.30958 9.88643 8.24078 10.1669C8.18172 10.4097 10.8495 10.1248 9.91625 11.441ZM13.0258 4.1814C13.0261 4.1814 13.5219 4.18695 13.6271 4.17061C13.7323 4.15424 13.7289 3.90671 13.7278 3.85399C13.727 3.8005 13.4431 3.67343 13.513 3.63916C13.5831 3.6049 13.7584 3.55453 13.8103 3.52C13.8346 3.50393 13.8954 3.45093 13.9611 3.39216C14.1778 3.62332 14.38 3.8685 14.5663 4.12602C14.5321 4.14763 14.4968 4.1735 14.4712 4.19933C14.4024 4.26919 14.1904 4.17798 14.1904 4.17798C14.0981 4.27656 14.0061 4.37594 13.9134 4.47535C13.8678 4.58107 13.8224 4.68728 13.7765 4.79324C13.7765 4.79324 13.4605 4.95009 13.3189 4.96669C13.1774 4.98303 12.9451 4.85596 12.9085 4.8022C12.8732 4.74841 13.0261 4.18084 13.0258 4.1814ZM15.3912 11.4107C15.3467 11.5161 15.2989 11.62 15.2496 11.7228C15.2001 11.5667 15.1511 11.4281 15.1079 11.3529C15.0048 11.1755 14.8669 10.9623 15.0448 10.5321C15.223 10.1019 14.9452 9.56539 14.8052 9.42175C14.6652 9.27861 14.6658 9.1708 14.806 8.95518C14.9462 8.73979 14.7712 8.66784 14.6307 8.66784C14.4899 8.66784 14.3842 8.4161 14.2079 8.45195C14.0317 8.48755 13.3582 8.66758 13.1081 8.63145C12.8597 8.59586 12.0707 7.83617 12.0691 7.65478C12.0691 7.47369 12.1024 6.78778 12.1735 6.6802C12.2452 6.57239 12.6356 6.08102 12.7764 5.86696C12.9172 5.65267 13.1281 5.36822 13.3052 5.33392C13.4831 5.29965 14.2935 5.16521 14.5371 5.09721C14.7812 5.02891 14.748 5.1602 14.8199 5.30334C14.8668 5.30968 14.9132 5.31625 14.9599 5.32259C14.9602 5.32259 15.1529 5.36058 15.2755 5.45096C15.3005 5.46942 15.3274 5.48708 15.3548 5.50475C15.756 6.42158 15.9785 7.43358 15.9788 8.4999C15.9785 9.53401 15.7692 10.5162 15.3912 11.4107Z" fill="#414141"/>
</g>
<defs>
<clipPath id="clip0_46_695">
<rect width="17" height="17" fill="white"/>
</clipPath>
</defs>
</svg>
