<svg width="70" height="71" viewBox="0 0 70 71" fill="none" xmlns="http://www.w3.org/2000/svg">
<ellipse cx="34.9996" cy="35.5" rx="29.4" ry="29.82" fill="white"/>
<path d="M22.7923 44.2567V44.5067H23.0423H30.2007V64.6705C16.5233 62.3486 6.08398 50.2448 6.08398 35.6775C6.08398 19.4524 19.1005 6.28494 35.0007 6.28494C50.9008 6.28494 63.9173 19.4524 63.9173 35.6775V35.6781C63.9329 42.6768 61.4807 49.4503 57.0048 54.7754C52.5925 60.0251 46.4998 63.5262 39.8007 64.6702V44.5067H46.3465H46.5611L46.5936 44.2945L47.9061 35.7153L47.9501 35.4275H47.659H39.8007V30.1158C39.8007 28.9832 40.0767 27.8955 40.7615 27.0943C41.4401 26.3004 42.552 25.7508 44.3048 25.7508H47.9798H48.2298V25.5008V18.1937V17.9824L48.0215 17.9472L47.9798 18.1937L48.0214 17.9472L48.0213 17.9472L48.0207 17.9471L48.0188 17.9467L48.0112 17.9455L47.9821 17.9407C47.9566 17.9365 47.9188 17.9304 47.8698 17.9226C47.7718 17.9071 47.6285 17.885 47.4467 17.8585C47.0832 17.8055 46.5656 17.7349 45.9483 17.6643C44.7148 17.5232 43.0784 17.3816 41.4757 17.3816C38.0849 17.3816 35.2588 18.4189 33.2804 20.4255C31.3023 22.432 30.2007 25.3781 30.2007 29.1395V35.4275H23.0423H22.7923V35.6775V44.2567Z" fill="#1F39E2" stroke="white" stroke-width="0.5"/>
</svg>
