<svg width="48" height="48" viewBox="0 0 48 48" fill="none" xmlns="http://www.w3.org/2000/svg">
<g clip-path="url(#clip0_88_385)">
<path d="M0.833984 35.7161C0.833984 37.0971 1.38259 38.4216 2.35912 39.3981C3.33565 40.3746 4.6601 40.9232 6.04112 40.9232H42.4911C43.8721 40.9232 45.1966 40.3746 46.1731 39.3981C47.1496 38.4216 47.6982 37.0971 47.6982 35.7161V29.2072H0.833984V35.7161Z" fill="#138808"/>
<path d="M47.6982 18.7928V12.2839C47.6982 10.9029 47.1496 9.57845 46.1731 8.60192C45.1966 7.62539 43.8721 7.07678 42.4911 7.07678H6.04112C4.6601 7.07678 3.33565 7.62539 2.35912 8.60192C1.38259 9.57845 0.833984 10.9029 0.833984 12.2839L0.833984 18.7928H47.6982Z" fill="#FF9933"/>
<path d="M0.833984 18.3594H47.6982V29.6419H0.833984V18.3594Z" fill="#F7F7F7"/>
<path d="M24.2657 29.2071C27.1416 29.2071 29.4729 26.8758 29.4729 24C29.4729 21.1242 27.1416 18.7928 24.2657 18.7928C21.3899 18.7928 19.0586 21.1242 19.0586 24C19.0586 26.8758 21.3899 29.2071 24.2657 29.2071Z" fill="#000080"/>
<path d="M24.2666 28.3935C26.693 28.3935 28.6601 26.4264 28.6601 24C28.6601 21.5735 26.693 19.6064 24.2666 19.6064C21.8401 19.6064 19.873 21.5735 19.873 24C19.873 26.4264 21.8401 28.3935 24.2666 28.3935Z" fill="#F7F7F7"/>
<path d="M24.3965 22.3727L24.2663 23.2189L24.1361 22.3727L24.2663 19.8342L24.3965 22.3727ZM23.1884 19.9761L23.7195 22.4612L24.0645 23.2449L23.9708 22.3948L23.1884 19.9761ZM22.1834 20.3927L23.3394 22.6552L23.8758 23.323L23.5659 22.525L22.1834 20.3927ZM21.3204 21.054L23.0231 22.9416L23.7143 23.448L23.2079 22.7567L21.3204 21.054ZM20.6591 21.9171L22.7914 23.2996L23.5894 23.6094L22.9216 23.0731L20.6591 21.9171ZM20.2425 22.9221L22.6612 23.7044L23.5113 23.7982L22.7276 23.4532L20.2425 22.9221ZM20.1006 23.9999L22.6391 24.1301L23.4852 23.9999L22.6391 23.8698L20.1006 23.9999ZM20.2425 25.0778L22.7276 24.5467L23.5113 24.2017L22.6612 24.2954L20.2425 25.0778ZM20.6591 26.0828L22.9216 24.9268L23.5894 24.3905L22.7914 24.7003L20.6591 26.0828ZM21.3204 26.9459L23.2079 25.2431L23.7143 24.5519L23.0231 25.0583L21.3204 26.9459ZM22.1834 27.6072L23.5659 25.4749L23.8758 24.6769L23.3394 25.3447L22.1834 27.6072ZM23.1884 28.0238L23.9708 25.605L24.0645 24.755L23.7195 25.5386L23.1884 28.0238ZM24.2663 28.1657L24.3965 25.6272L24.2663 24.781L24.1361 25.6272L24.2663 28.1657ZM25.3442 28.0238L24.813 25.5386L24.4681 24.755L24.5618 25.605L25.3442 28.0238ZM26.3492 27.6072L25.1932 25.3447L24.6568 24.6769L24.9667 25.4749L26.3492 27.6072ZM27.2122 26.9459L25.5095 25.0583L24.8183 24.5519L25.3246 25.2431L27.2122 26.9459ZM27.8735 26.0828L25.7412 24.7003L24.9432 24.3905L25.611 24.9268L27.8735 26.0828ZM28.2901 25.0778L25.8714 24.2954L25.0213 24.2017L25.805 24.5467L28.2901 25.0778ZM28.432 23.9999L25.8935 23.8698L25.0474 23.9999L25.8935 24.1301L28.432 23.9999ZM28.2901 22.9221L25.805 23.4532L25.0213 23.7982L25.8714 23.7044L28.2901 22.9221ZM27.8735 21.9171L25.611 23.0731L24.9432 23.6094L25.7412 23.2996L27.8735 21.9171ZM27.2122 21.054L25.3246 22.7567L24.8183 23.448L25.5095 22.9416L27.2122 21.054ZM26.3492 20.3927L24.9667 22.525L24.6568 23.323L25.1932 22.6552L26.3492 20.3927ZM25.3442 19.9761L24.5618 22.3948L24.4681 23.2449L24.813 22.4612L25.3442 19.9761Z" fill="#6666B3"/>
<path d="M23.693 19.9111C23.8368 19.9111 23.9533 19.7945 23.9533 19.6507C23.9533 19.5069 23.8368 19.3904 23.693 19.3904C23.5492 19.3904 23.4326 19.5069 23.4326 19.6507C23.4326 19.7945 23.5492 19.9111 23.693 19.9111Z" fill="#000080"/>
<path d="M22.5865 20.2078C22.7303 20.2078 22.8469 20.0913 22.8469 19.9475C22.8469 19.8037 22.7303 19.6871 22.5865 19.6871C22.4427 19.6871 22.3262 19.8037 22.3262 19.9475C22.3262 20.0913 22.4427 20.2078 22.5865 20.2078Z" fill="#000080"/>
<path d="M21.5943 20.7794C21.7381 20.7794 21.8547 20.6628 21.8547 20.519C21.8547 20.3752 21.7381 20.2587 21.5943 20.2587C21.4505 20.2587 21.334 20.3752 21.334 20.519C21.334 20.6628 21.4505 20.7794 21.5943 20.7794Z" fill="#000080"/>
<path d="M20.7848 21.5891C20.9286 21.5891 21.0451 21.4725 21.0451 21.3287C21.0451 21.1849 20.9286 21.0684 20.7848 21.0684C20.641 21.0684 20.5244 21.1849 20.5244 21.3287C20.5244 21.4725 20.641 21.5891 20.7848 21.5891Z" fill="#000080"/>
<path d="M20.2135 22.581C20.3573 22.581 20.4738 22.4644 20.4738 22.3207C20.4738 22.1769 20.3573 22.0603 20.2135 22.0603C20.0697 22.0603 19.9531 22.1769 19.9531 22.3207C19.9531 22.4644 20.0697 22.581 20.2135 22.581Z" fill="#000080"/>
<path d="M19.9166 23.6876C20.0604 23.6876 20.177 23.571 20.177 23.4272C20.177 23.2834 20.0604 23.1669 19.9166 23.1669C19.7728 23.1669 19.6562 23.2834 19.6562 23.4272C19.6562 23.571 19.7728 23.6876 19.9166 23.6876Z" fill="#000080"/>
<path d="M19.9166 24.8331C20.0604 24.8331 20.177 24.7165 20.177 24.5727C20.177 24.4289 20.0604 24.3124 19.9166 24.3124C19.7728 24.3124 19.6562 24.4289 19.6562 24.5727C19.6562 24.7165 19.7728 24.8331 19.9166 24.8331Z" fill="#000080"/>
<path d="M20.2135 25.9397C20.3573 25.9397 20.4738 25.8231 20.4738 25.6793C20.4738 25.5355 20.3573 25.4189 20.2135 25.4189C20.0697 25.4189 19.9531 25.5355 19.9531 25.6793C19.9531 25.8231 20.0697 25.9397 20.2135 25.9397Z" fill="#000080"/>
<path d="M20.7848 26.9316C20.9286 26.9316 21.0451 26.815 21.0451 26.6712C21.0451 26.5275 20.9286 26.4109 20.7848 26.4109C20.641 26.4109 20.5244 26.5275 20.5244 26.6712C20.5244 26.815 20.641 26.9316 20.7848 26.9316Z" fill="#000080"/>
<path d="M21.5943 27.7413C21.7381 27.7413 21.8547 27.6247 21.8547 27.4809C21.8547 27.3371 21.7381 27.2206 21.5943 27.2206C21.4505 27.2206 21.334 27.3371 21.334 27.4809C21.334 27.6247 21.4505 27.7413 21.5943 27.7413Z" fill="#000080"/>
<path d="M22.5865 28.3128C22.7303 28.3128 22.8469 28.1963 22.8469 28.0525C22.8469 27.9087 22.7303 27.7921 22.5865 27.7921C22.4427 27.7921 22.3262 27.9087 22.3262 28.0525C22.3262 28.1963 22.4427 28.3128 22.5865 28.3128Z" fill="#000080"/>
<path d="M23.693 28.6096C23.8368 28.6096 23.9533 28.493 23.9533 28.3492C23.9533 28.2054 23.8368 28.0889 23.693 28.0889C23.5492 28.0889 23.4326 28.2054 23.4326 28.3492C23.4326 28.493 23.5492 28.6096 23.693 28.6096Z" fill="#000080"/>
<path d="M24.8385 28.6096C24.9823 28.6096 25.0988 28.493 25.0988 28.3492C25.0988 28.2054 24.9823 28.0889 24.8385 28.0889C24.6947 28.0889 24.5781 28.2054 24.5781 28.3492C24.5781 28.493 24.6947 28.6096 24.8385 28.6096Z" fill="#000080"/>
<path d="M25.9449 28.3128C26.0887 28.3128 26.2053 28.1963 26.2053 28.0525C26.2053 27.9087 26.0887 27.7921 25.9449 27.7921C25.8011 27.7921 25.6846 27.9087 25.6846 28.0525C25.6846 28.1963 25.8011 28.3128 25.9449 28.3128Z" fill="#000080"/>
<path d="M26.9371 27.7413C27.0809 27.7413 27.1975 27.6247 27.1975 27.4809C27.1975 27.3371 27.0809 27.2206 26.9371 27.2206C26.7933 27.2206 26.6768 27.3371 26.6768 27.4809C26.6768 27.6247 26.7933 27.7413 26.9371 27.7413Z" fill="#000080"/>
<path d="M27.7467 26.9316C27.8905 26.9316 28.007 26.815 28.007 26.6712C28.007 26.5275 27.8905 26.4109 27.7467 26.4109C27.6029 26.4109 27.4863 26.5275 27.4863 26.6712C27.4863 26.815 27.6029 26.9316 27.7467 26.9316Z" fill="#000080"/>
<path d="M28.318 25.9397C28.4618 25.9397 28.5783 25.8231 28.5783 25.6793C28.5783 25.5355 28.4618 25.4189 28.318 25.4189C28.1742 25.4189 28.0576 25.5355 28.0576 25.6793C28.0576 25.8231 28.1742 25.9397 28.318 25.9397Z" fill="#000080"/>
<path d="M28.6148 24.8331C28.7586 24.8331 28.8752 24.7165 28.8752 24.5727C28.8752 24.4289 28.7586 24.3124 28.6148 24.3124C28.4711 24.3124 28.3545 24.4289 28.3545 24.5727C28.3545 24.7165 28.4711 24.8331 28.6148 24.8331Z" fill="#000080"/>
<path d="M28.6148 23.6876C28.7586 23.6876 28.8752 23.571 28.8752 23.4272C28.8752 23.2834 28.7586 23.1669 28.6148 23.1669C28.4711 23.1669 28.3545 23.2834 28.3545 23.4272C28.3545 23.571 28.4711 23.6876 28.6148 23.6876Z" fill="#000080"/>
<path d="M28.318 22.581C28.4618 22.581 28.5783 22.4644 28.5783 22.3207C28.5783 22.1769 28.4618 22.0603 28.318 22.0603C28.1742 22.0603 28.0576 22.1769 28.0576 22.3207C28.0576 22.4644 28.1742 22.581 28.318 22.581Z" fill="#000080"/>
<path d="M27.7467 21.5891C27.8905 21.5891 28.007 21.4725 28.007 21.3287C28.007 21.1849 27.8905 21.0684 27.7467 21.0684C27.6029 21.0684 27.4863 21.1849 27.4863 21.3287C27.4863 21.4725 27.6029 21.5891 27.7467 21.5891Z" fill="#000080"/>
<path d="M26.9371 20.7794C27.0809 20.7794 27.1975 20.6628 27.1975 20.519C27.1975 20.3752 27.0809 20.2587 26.9371 20.2587C26.7933 20.2587 26.6768 20.3752 26.6768 20.519C26.6768 20.6628 26.7933 20.7794 26.9371 20.7794Z" fill="#000080"/>
<path d="M25.9449 20.2078C26.0887 20.2078 26.2053 20.0913 26.2053 19.9475C26.2053 19.8037 26.0887 19.6871 25.9449 19.6871C25.8011 19.6871 25.6846 19.8037 25.6846 19.9475C25.6846 20.0913 25.8011 20.2078 25.9449 20.2078Z" fill="#000080"/>
<path d="M24.8385 19.9111C24.9823 19.9111 25.0988 19.7945 25.0988 19.6507C25.0988 19.5069 24.9823 19.3904 24.8385 19.3904C24.6947 19.3904 24.5781 19.5069 24.5781 19.6507C24.5781 19.7945 24.6947 19.9111 24.8385 19.9111Z" fill="#000080"/>
<path d="M24.2663 25.1716C24.9134 25.1716 25.4379 24.647 25.4379 24C25.4379 23.3529 24.9134 22.8284 24.2663 22.8284C23.6193 22.8284 23.0947 23.3529 23.0947 24C23.0947 24.647 23.6193 25.1716 24.2663 25.1716Z" fill="#000080"/>
</g>
<defs>
<clipPath id="clip0_88_385">
<rect width="46.8643" height="46.8643" fill="white" transform="translate(0.833984 0.567871)"/>
</clipPath>
</defs>
</svg>
