<svg width="38" height="38" viewBox="0 0 38 38" fill="none" xmlns="http://www.w3.org/2000/svg">
<path fill-rule="evenodd" clip-rule="evenodd" d="M19 28.5C24.2467 28.5 28.5 24.2467 28.5 19C28.5 13.7533 24.2467 9.5 19 9.5C13.7533 9.5 9.5 13.7533 9.5 19C9.5 24.2467 13.7533 28.5 19 28.5ZM19 25.3333C22.4977 25.3333 25.3333 22.4977 25.3333 19C25.3333 15.5022 22.4977 12.6667 19 12.6667C15.5022 12.6667 12.6667 15.5022 12.6667 19C12.6667 22.4977 15.5022 25.3333 19 25.3333Z" fill="#0F0F0F"/>
<path d="M28.5001 7.91699C27.6256 7.91699 26.9167 8.62588 26.9167 9.50033C26.9167 10.3748 27.6256 11.0837 28.5001 11.0837C29.3746 11.0837 30.0834 10.3748 30.0834 9.50033C30.0834 8.62588 29.3746 7.91699 28.5001 7.91699Z" fill="#0F0F0F"/>
<path fill-rule="evenodd" clip-rule="evenodd" d="M2.61869 6.7701C1.58325 8.80226 1.58325 11.4625 1.58325 16.783V21.2163C1.58325 26.5368 1.58325 29.1971 2.61869 31.2292C3.52949 33.0168 4.9828 34.4701 6.77035 35.3808C8.80251 36.4163 11.4628 36.4163 16.7833 36.4163H21.2166C26.5371 36.4163 29.1974 36.4163 31.2294 35.3808C33.017 34.4701 34.4704 33.0168 35.3811 31.2292C36.4166 29.1971 36.4166 26.5368 36.4166 21.2163V16.783C36.4166 11.4625 36.4166 8.80226 35.3811 6.7701C34.4704 4.98255 33.017 3.52924 31.2294 2.61844C29.1974 1.58301 26.5371 1.58301 21.2166 1.58301H16.7833C11.4628 1.58301 8.80251 1.58301 6.77035 2.61844C4.9828 3.52924 3.52949 4.98255 2.61869 6.7701ZM21.2166 4.74967H16.7833C14.0707 4.74967 12.2268 4.75214 10.8015 4.86858C9.41322 4.98201 8.70325 5.18761 8.20798 5.43996C7.01629 6.04717 6.04741 7.01604 5.4402 8.20774C5.18785 8.70301 4.98226 9.41297 4.86883 10.8013C4.75239 12.2266 4.74992 14.0705 4.74992 16.783V21.2163C4.74992 23.9289 4.75239 25.7727 4.86883 27.198C4.98226 28.5864 5.18785 29.2964 5.4402 29.7917C6.04741 30.9833 7.01629 31.9521 8.20798 32.5593C8.70325 32.8117 9.41322 33.0174 10.8015 33.1308C12.2268 33.2471 14.0707 33.2497 16.7833 33.2497H21.2166C23.9291 33.2497 25.7729 33.2471 27.1983 33.1308C28.5867 33.0174 29.2966 32.8117 29.7919 32.5593C30.9835 31.9521 31.9524 30.9833 32.5596 29.7917C32.812 29.2964 33.0176 28.5864 33.131 27.198C33.2474 25.7727 33.2499 23.9289 33.2499 21.2163V16.783C33.2499 14.0705 33.2474 12.2266 33.131 10.8013C33.0176 9.41297 32.812 8.70301 32.5596 8.20774C31.9524 7.01604 30.9835 6.04717 29.7919 5.43996C29.2966 5.18761 28.5867 4.98201 27.1983 4.86858C25.7729 4.75214 23.9291 4.74967 21.2166 4.74967Z" fill="#0F0F0F"/>
</svg>
