<svg width="49" height="49" viewBox="0 0 49 49" fill="none" xmlns="http://www.w3.org/2000/svg">
<path d="M44.4821 3.6394V0H1.33984V45.3629H1.51796C1.92106 47.0244 3.13492 49 5.88117 49H47.6604V3.6394H44.4821ZM41.7559 2.72395C41.7559 3.42112 41.7559 6.72856 41.7559 11.1631H4.05935C4.05935 6.72866 4.05935 3.42339 4.05935 2.72395C6.51598 2.72395 39.2993 2.72395 41.7559 2.72395ZM4.05935 13.1342H41.7559C41.7559 24.431 41.7559 40.9752 41.7559 42.6456C39.297 42.6456 6.51598 42.6456 4.05935 42.6456C4.05935 40.9729 4.05935 24.431 4.05935 13.1342ZM44.9432 46.2805C42.3952 46.2805 5.88127 46.2805 5.88127 46.2805C5.04161 46.2805 4.5939 45.8351 4.35115 45.3629H44.4821V6.35664C44.6781 6.35664 44.8429 6.35664 44.9432 6.35664C44.9432 8.82896 44.9432 43.8104 44.9432 46.2805Z" fill="#CB392C"/>
<path d="M38.2674 15.5597H24.5586V18.2814H38.2674V15.5597Z" fill="#CB392C"/>
<path d="M38.2674 21.0901H24.5586V23.8185H38.2674V21.0901Z" fill="#CB392C"/>
<path d="M38.2674 26.6227H24.5586V29.3555H38.2674V26.6227Z" fill="#CB392C"/>
<path d="M38.2674 31.8567H24.5586V34.5918H38.2674V31.8567Z" fill="#CB392C"/>
<path d="M38.2674 37.3893H24.5586V40.1177H38.2674V37.3893Z" fill="#CB392C"/>
<path d="M20.608 15.5597H6.5918V29.3554H20.608V15.5597Z" fill="#CB392C"/>
<path d="M31.4494 4.49908H15.2305V9.3479H31.4494V4.49908Z" fill="#CB392C"/>
<path d="M20.8699 32.1574H6.43945V34.8902H20.8699V32.1574Z" fill="#CB392C"/>
<path d="M20.8699 37.6832H6.43945V40.4139H20.8699V37.6832Z" fill="#CB392C"/>
</svg>
