<svg width="65" height="65" viewBox="0 0 65 65" fill="none" xmlns="http://www.w3.org/2000/svg">
<path d="M45.0634 50.3358C44.8173 50.3358 44.5736 50.2877 44.346 50.1942L21.4969 40.8456C20.5276 40.449 20.0635 39.3423 20.4601 38.373C20.8568 37.4039 21.9643 36.9401 22.9326 37.3363L45.7817 46.685C46.751 47.0816 47.2152 48.1883 46.8186 49.1575C46.5181 49.8915 45.8099 50.3358 45.0634 50.3358ZM22.2152 27.8367C21.4618 27.8367 20.7494 27.3844 20.4536 26.6416C20.0662 25.6692 20.5407 24.5662 21.5136 24.1792L41.5962 16.1825C42.5699 15.7942 43.6715 16.27 44.0585 17.2425C44.4459 18.2149 43.9714 19.3179 42.9986 19.7048L22.916 27.7015C22.6931 27.7907 22.4553 27.8366 22.2152 27.8367Z" fill="#00A705"/>
<path d="M45.0635 57.4404C45.927 58.3038 46.9521 58.9888 48.0803 59.456C49.2084 59.9233 50.4176 60.1638 51.6387 60.1638C52.8599 60.1638 54.069 59.9232 55.1972 59.4559C56.3254 58.9886 57.3505 58.3036 58.2139 57.4401C59.0774 56.5767 59.7623 55.5516 60.2296 54.4234C60.6969 53.2952 60.9374 52.086 60.9373 50.8649C60.9373 49.6438 60.6968 48.4346 60.2294 47.3064C59.7621 46.1783 59.0772 45.1532 58.2137 44.2897C57.3502 43.4263 56.3251 42.7414 55.1969 42.2741C54.0687 41.8068 52.8596 41.5663 51.6384 41.5663C50.4173 41.5663 49.2081 41.8069 48.08 42.2742C46.9518 42.7415 45.9267 43.4265 45.0633 44.29C44.1998 45.1534 43.5149 46.1785 43.0476 47.3067C42.5803 48.4349 42.3398 49.6441 42.3398 50.8652C42.3399 52.0863 42.5804 53.2955 43.0477 54.4237C43.5151 55.5518 44.2 56.5769 45.0635 57.4404Z" fill="#00A705"/>
<path d="M42.2959 20.7105C44.0398 22.4543 46.405 23.434 48.8712 23.4339C51.3374 23.4339 53.7025 22.4542 55.4463 20.7103C57.1902 18.9664 58.1698 16.6012 58.1698 14.135C58.1697 11.6689 57.19 9.3037 55.4461 7.55987C53.7022 5.81605 51.337 4.83641 48.8708 4.83645C46.4047 4.83649 44.0395 5.81622 42.2957 7.5601C40.5519 9.30399 39.5722 11.6692 39.5723 14.1354C39.5723 16.6015 40.552 18.9667 42.2959 20.7105Z" fill="#00A705"/>
<path d="M7.85894 41.6796C9.06238 42.8831 10.4911 43.8378 12.0635 44.4891C13.6359 45.1405 15.3212 45.4757 17.0232 45.4757C18.7252 45.4757 20.4105 45.1405 21.9829 44.4892C23.5553 43.8378 24.984 42.8832 26.1875 41.6797C27.3909 40.4762 28.3455 39.0474 28.9968 37.475C29.6481 35.9026 29.9833 34.2172 29.9832 32.5153C29.9831 30.8133 29.6478 29.128 28.9964 27.5556C28.345 25.9832 27.3903 24.5546 26.1868 23.3511C24.9833 22.1476 23.5546 21.193 21.9822 20.5416C20.4098 19.8903 18.7245 19.555 17.0225 19.555C15.3205 19.555 13.6352 19.8903 12.0628 20.5416C10.4904 21.1929 9.06168 22.1476 7.85822 23.3511C6.65477 24.5546 5.70015 25.9833 5.04888 27.5558C4.39761 29.1282 4.06243 30.8135 4.0625 32.5155C4.06257 34.2175 4.39787 35.9028 5.04927 37.4751C5.70066 39.0475 6.65539 40.4762 7.85894 41.6796Z" fill="#00A705"/>
<path d="M58.2133 44.2898C57.982 44.059 57.7388 43.8405 57.4848 43.6351C60.4453 47.2871 60.2278 52.6593 56.8301 56.057C53.4324 59.4548 48.0601 59.6722 44.4083 56.7118C44.6137 56.9658 44.8322 57.209 45.0629 57.4403C48.6943 61.0717 54.582 61.0716 58.2133 57.4403C61.8446 53.8089 61.8446 47.9213 58.2133 44.2898ZM55.4469 7.55974C55.2156 7.32895 54.9724 7.11042 54.7183 6.90504C57.6789 10.557 57.4614 15.9292 54.0637 19.3269C50.666 22.7246 45.2937 22.9421 41.6418 19.9816C41.8472 20.2356 42.0657 20.4788 42.2965 20.7101C45.9278 24.3416 51.8155 24.3414 55.4469 20.7101C59.0783 17.0788 59.0783 11.1912 55.4469 7.55974ZM26.1859 23.3514C25.9523 23.1179 25.7055 22.9066 25.4593 22.6948C29.8417 27.7866 29.6304 35.4687 24.8027 40.2963C19.9751 45.124 12.2929 45.3353 7.20117 40.9529C7.41293 41.1992 7.62431 41.4459 7.85758 41.6795C12.9189 46.7408 21.1246 46.7407 26.1859 41.6795C31.247 36.6183 31.2473 28.4128 26.1859 23.3514Z" fill="white"/>
</svg>
