<svg width="21" height="22" viewBox="0 0 21 22" fill="none" xmlns="http://www.w3.org/2000/svg">
<path fill-rule="evenodd" clip-rule="evenodd" d="M10.4584 16.2006C13.2773 16.2006 15.5624 13.9155 15.5624 11.0966C15.5624 8.27779 13.2773 5.99268 10.4584 5.99268C7.63961 5.99268 5.35449 8.27779 5.35449 11.0966C5.35449 13.9155 7.63961 16.2006 10.4584 16.2006ZM10.4584 14.4993C12.3376 14.4993 13.8611 12.9758 13.8611 11.0966C13.8611 9.2174 12.3376 7.69399 10.4584 7.69399C8.57922 7.69399 7.05581 9.2174 7.05581 11.0966C7.05581 12.9758 8.57922 14.4993 10.4584 14.4993Z" fill="#0F0F0F"/>
<path d="M15.5623 5.14185C15.0925 5.14185 14.7117 5.5227 14.7117 5.9925C14.7117 6.46231 15.0925 6.84316 15.5623 6.84316C16.0321 6.84316 16.413 6.46231 16.413 5.9925C16.413 5.5227 16.0321 5.14185 15.5623 5.14185Z" fill="#0F0F0F"/>
<path fill-rule="evenodd" clip-rule="evenodd" d="M1.65737 4.52607C1.10107 5.61786 1.10107 7.04711 1.10107 9.90558V12.2874C1.10107 15.1459 1.10107 16.5752 1.65737 17.6669C2.1467 18.6273 2.92751 19.4081 3.88788 19.8974C4.97968 20.4538 6.40892 20.4538 9.2674 20.4538H11.6492C14.5077 20.4538 15.937 20.4538 17.0287 19.8974C17.9891 19.4081 18.7699 18.6273 19.2592 17.6669C19.8156 16.5752 19.8156 15.1459 19.8156 12.2874V9.90558C19.8156 7.04711 19.8156 5.61786 19.2592 4.52607C18.7699 3.56569 17.9891 2.78489 17.0287 2.29555C15.937 1.73926 14.5077 1.73926 11.6492 1.73926H9.2674C6.40892 1.73926 4.97968 1.73926 3.88788 2.29555C2.92751 2.78489 2.1467 3.56569 1.65737 4.52607ZM11.6492 3.44058H9.2674C7.81009 3.44058 6.81942 3.4419 6.05368 3.50446C5.30779 3.5654 4.92635 3.67586 4.66027 3.81144C4.02002 4.13767 3.49948 4.6582 3.17325 5.29845C3.03768 5.56454 2.92722 5.94597 2.86628 6.69186C2.80372 7.4576 2.80239 8.44827 2.80239 9.90558V12.2874C2.80239 13.7448 2.80372 14.7354 2.86628 15.5011C2.92722 16.2471 3.03768 16.6285 3.17325 16.8946C3.49948 17.5348 4.02002 18.0553 4.66027 18.3815C4.92635 18.5171 5.30779 18.6276 6.05368 18.6886C6.81942 18.7511 7.81009 18.7524 9.2674 18.7524H11.6492C13.1066 18.7524 14.0972 18.7511 14.863 18.6886C15.6089 18.6276 15.9903 18.5171 16.2564 18.3815C16.8966 18.0553 17.4171 17.5348 17.7434 16.8946C17.879 16.6285 17.9895 16.2471 18.0504 15.5011C18.1129 14.7354 18.1143 13.7448 18.1143 12.2874V9.90558C18.1143 8.44827 18.1129 7.4576 18.0504 6.69186C17.9895 5.94597 17.879 5.56454 17.7434 5.29845C17.4171 4.6582 16.8966 4.13767 16.2564 3.81144C15.9903 3.67586 15.6089 3.5654 14.863 3.50446C14.0972 3.4419 13.1066 3.44058 11.6492 3.44058Z" fill="#0F0F0F"/>
</svg>
