<svg width="25" height="24" viewBox="0 0 25 24" fill="none" xmlns="http://www.w3.org/2000/svg">
<g clip-path="url(#clip0_14_148)">
<path fill-rule="evenodd" clip-rule="evenodd" d="M10.3703 7.26528C10.0632 7.08976 9.68579 7.09102 9.3798 7.26859C9.07382 7.44615 8.8855 7.77318 8.8855 8.12695V16.0664C8.8855 16.4202 9.07382 16.7472 9.3798 16.9248C9.68579 17.1023 10.0632 17.1036 10.3703 16.9281L17.3173 12.9583C17.6266 12.7817 17.8174 12.4529 17.8174 12.0967C17.8174 11.7405 17.6266 11.4117 17.3173 11.2351L10.3703 7.26528ZM14.8246 12.0967L10.8704 14.3563V9.8371L14.8246 12.0967Z" fill="#0F0F0F"/>
<path fill-rule="evenodd" clip-rule="evenodd" d="M0.946045 12.0967C0.946045 8.37535 0.946045 6.51466 1.89374 5.21027C2.1998 4.78901 2.57027 4.41855 2.99152 4.11248C4.29591 3.16479 6.1566 3.16479 9.87797 3.16479H15.8326C19.5539 3.16479 21.4146 3.16479 22.719 4.11248C23.1403 4.41855 23.5108 4.78901 23.8168 5.21027C24.7645 6.51466 24.7645 8.37535 24.7645 12.0967C24.7645 15.818 24.7645 17.6788 23.8168 18.9831C23.5108 19.4044 23.1403 19.7749 22.719 20.081C21.4146 21.0286 19.5539 21.0286 15.8326 21.0286H9.87797C6.1566 21.0286 4.29591 21.0286 2.99152 20.081C2.57027 19.7749 2.1998 19.4044 1.89374 18.9831C0.946045 17.6788 0.946045 15.818 0.946045 12.0967ZM9.87797 5.14967H15.8326C17.7375 5.14967 19.0067 5.15239 19.9684 5.25658C20.8929 5.35675 21.2949 5.53124 21.5524 5.71828C21.8051 5.90192 22.0274 6.1242 22.2111 6.37695C22.398 6.6344 22.5725 7.03641 22.6727 7.96093C22.7769 8.92258 22.7796 10.1918 22.7796 12.0967C22.7796 14.0016 22.7769 15.2708 22.6727 16.2325C22.5725 17.157 22.398 17.5591 22.2111 17.8165C22.0274 18.0692 21.8051 18.2915 21.5524 18.4752C21.2949 18.6622 20.8929 18.8366 19.9684 18.9369C19.0067 19.0411 17.7375 19.0438 15.8326 19.0438H9.87797C7.97306 19.0438 6.70383 19.0411 5.74218 18.9369C4.81767 18.8366 4.41565 18.6622 4.1582 18.4752C3.90545 18.2915 3.68317 18.0692 3.49953 17.8165C3.31249 17.5591 3.138 17.157 3.03783 16.2325C2.93365 15.2708 2.93092 14.0016 2.93092 12.0967C2.93092 10.1918 2.93365 8.92258 3.03783 7.96093C3.138 7.03641 3.31249 6.6344 3.49953 6.37695C3.68317 6.1242 3.90545 5.90192 4.1582 5.71828C4.41565 5.53124 4.81767 5.35675 5.74218 5.25658C6.70383 5.15239 7.97306 5.14967 9.87797 5.14967Z" fill="#0F0F0F"/>
</g>
<defs>
<clipPath id="clip0_14_148">
<rect width="23.8185" height="23.8184" fill="white" transform="translate(0.946045 0.1875)"/>
</clipPath>
</defs>
</svg>
