<svg width="95" height="95" viewBox="0 0 95 95" fill="none" xmlns="http://www.w3.org/2000/svg">
<g clip-path="url(#clip0_46_172)">
<path d="M81.1566 13.8055C72.226 4.90806 60.351 0.0054285 47.6991 0C21.6278 0 0.410953 21.1167 0.400515 47.0722C0.397477 55.3689 2.57489 63.4678 6.71357 70.6067L0.00341797 95L25.0769 88.4543C31.9852 92.2053 39.7634 94.1818 47.6788 94.185H47.6989H47.6991C73.7662 94.185 94.9862 73.0645 94.9973 47.1103C95.0016 34.5311 90.086 22.7035 81.1566 13.8055ZM47.6991 86.2343H47.6837C40.6284 86.2306 33.7096 84.3447 27.6748 80.7795L26.2386 79.9319L11.3595 83.8158L15.332 69.3779L14.3963 67.8977C10.4608 61.6676 8.38312 54.4679 8.38608 47.0752C8.39472 25.5019 26.0293 7.95097 47.714 7.95097C58.2148 7.95531 68.0844 12.0304 75.5072 19.4257C82.9295 26.8208 87.0141 36.6517 87.011 47.107C87.0018 68.681 69.3666 86.2343 47.6991 86.2343Z" fill="#E0E0E0"/>
<path d="M2.17432 92.2932L8.57796 69.0142C4.62731 62.2013 2.54976 54.4718 2.55225 46.5556C2.56261 21.7863 22.8104 1.63477 47.6887 1.63477C59.7633 1.64019 71.0961 6.31863 79.6168 14.8098C88.1393 23.3009 92.8299 34.5875 92.825 46.5907C92.8147 71.3607 72.5656 91.514 47.6905 91.514C47.6887 91.514 47.6917 91.514 47.6905 91.514H47.6704C40.1166 91.5116 32.6942 89.6237 26.102 86.0467L2.17432 92.2932Z" fill="url(#paint0_linear_46_172)"/>
<path fill-rule="evenodd" clip-rule="evenodd" d="M36.0108 27.0877C35.1358 25.1508 34.2145 25.112 33.382 25.0781C32.701 25.049 31.9215 25.0508 31.1432 25.0508C30.3642 25.0508 29.0985 25.3422 28.0281 26.5061C26.9571 27.67 23.9387 30.4836 23.9387 36.2059C23.9387 41.9289 28.1255 47.4586 28.709 48.2352C29.2932 49.0107 36.791 61.1292 48.6654 65.7912C58.534 69.6657 60.5422 68.895 62.6843 68.7011C64.8263 68.5073 69.596 65.8882 70.5697 63.1721C71.5433 60.4566 71.5433 58.1289 71.2512 57.6424C70.9591 57.1577 70.1802 56.8669 69.0118 56.2852C67.8434 55.7036 62.1001 52.8894 61.0291 52.5016C59.958 52.1139 59.1791 51.92 58.4002 53.0845C57.6213 54.2478 55.3836 56.8669 54.7021 57.6424C54.0205 58.4196 53.3389 58.5166 52.1706 57.9349C51.0022 57.3515 47.2396 56.1246 42.776 52.1623C39.3031 49.0797 36.9583 45.2724 36.2768 44.108C35.5952 42.9448 36.2037 42.3147 36.7898 41.7348C37.3143 41.2138 37.9582 40.3771 38.5424 39.6979C39.1253 39.0187 39.32 38.534 39.7095 37.7585C40.099 36.9818 39.9042 36.3027 39.6121 35.7211C39.32 35.1394 37.0496 29.3876 36.0108 27.0877Z" fill="white"/>
<path d="M80.7699 13.6558C71.9419 4.86055 60.2032 0.0142951 47.6966 0.00878906C21.9244 0.00878906 0.951201 20.8831 0.940841 46.5406C0.937803 54.7422 3.09021 62.748 7.18137 69.805L0.54834 93.9182L25.334 87.4476C32.1631 91.1554 39.8519 93.1094 47.6765 93.1124H47.6963H47.6966C73.4644 93.1124 94.4407 72.2344 94.4517 46.5781C94.456 34.1435 89.5968 22.4517 80.7699 13.6558ZM47.6966 85.2532H47.6814C40.707 85.2496 33.8676 83.3854 27.9021 79.8611L26.4823 79.0232L11.774 82.8625L15.7009 68.5903L14.7759 67.1272C10.8856 60.9686 8.83177 53.8515 8.8348 46.5437C8.84329 25.218 26.2755 7.86864 47.7112 7.86864C58.0917 7.8729 67.8477 11.9012 75.1855 19.2116C82.5226 26.5219 86.5602 36.2398 86.5572 46.5752C86.548 67.9014 69.1152 85.2532 47.6966 85.2532Z" fill="white"/>
</g>
<defs>
<linearGradient id="paint0_linear_46_172" x1="47.4997" y1="92.2932" x2="47.4997" y2="1.63492" gradientUnits="userSpaceOnUse">
<stop stop-color="#20B038"/>
<stop offset="1" stop-color="#60D66A"/>
</linearGradient>
<clipPath id="clip0_46_172">
<rect width="95" height="95" fill="white"/>
</clipPath>
</defs>
</svg>
