<svg width="65" height="47" viewBox="0 0 65 47" fill="none" xmlns="http://www.w3.org/2000/svg">
<path fill-rule="evenodd" clip-rule="evenodd" d="M25.7888 31.9905L25.7867 13.598L43.3489 22.826L25.7888 31.9905ZM64.35 10.4108C64.35 10.4108 63.7142 5.90017 61.7662 3.91383C59.2942 1.30562 56.5236 1.29332 55.2541 1.14194C46.1581 0.479147 32.5142 0.479156 32.5142 0.479156H32.4858C32.4858 0.479156 18.8419 0.479147 9.74595 1.14194C8.47438 1.29332 5.70579 1.30562 3.23173 3.91383C1.28376 5.90017 0.649994 10.4108 0.649994 10.4108C0.649994 10.4108 0 15.7091 0 21.0053V25.9722C0 31.2704 0.649994 36.5667 0.649994 36.5667C0.649994 36.5667 1.28376 41.0773 3.23173 43.0637C5.70579 45.6719 8.95374 45.59 10.4 45.8621C15.6 46.3654 32.5 46.5208 32.5 46.5208C32.5 46.5208 46.1581 46.5004 55.2541 45.8376C56.5236 45.6842 59.2942 45.6719 61.7662 43.0637C63.7142 41.0773 64.35 36.5667 64.35 36.5667C64.35 36.5667 65 31.2704 65 25.9722V21.0053C65 15.7091 64.35 10.4108 64.35 10.4108Z" fill="#CE1312"/>
</svg>
