<svg width="45" height="45" viewBox="0 0 45 45" fill="none" xmlns="http://www.w3.org/2000/svg">
<g clip-path="url(#clip0_46_238)">
<path fill-rule="evenodd" clip-rule="evenodd" d="M17.8053 13.372C17.2249 13.0404 16.512 13.0428 15.9339 13.3783C15.3558 13.7138 15 14.3316 15 15V30C15 30.6684 15.3558 31.2862 15.9339 31.6217C16.512 31.9571 17.2249 31.9596 17.8053 31.6279L30.9302 24.1279C31.5144 23.7941 31.875 23.1729 31.875 22.5C31.875 21.8271 31.5144 21.2059 30.9302 20.8721L17.8053 13.372ZM26.2207 22.5L18.75 26.769V18.231L26.2207 22.5Z" fill="#0F0F0F"/>
<path fill-rule="evenodd" clip-rule="evenodd" d="M0 22.5C0 15.4693 0 11.9539 1.79047 9.48951C2.36871 8.69362 3.06862 7.99371 3.86451 7.41546C6.32888 5.625 9.84426 5.625 16.875 5.625H28.125C35.1557 5.625 38.6711 5.625 41.1354 7.41546C41.9314 7.99371 42.6313 8.69362 43.2096 9.48951C45 11.9539 45 15.4693 45 22.5C45 29.5307 45 33.0461 43.2096 35.5104C42.6313 36.3064 41.9314 37.0063 41.1354 37.5846C38.6711 39.375 35.1557 39.375 28.125 39.375H16.875C9.84426 39.375 6.32888 39.375 3.86451 37.5846C3.06862 37.0063 2.36871 36.3064 1.79047 35.5104C0 33.0461 0 29.5307 0 22.5ZM16.875 9.375H28.125C31.7239 9.375 34.1218 9.38016 35.9387 9.57699C37.6854 9.76624 38.445 10.0959 38.9314 10.4493C39.4087 10.7962 39.8287 11.2162 40.1758 11.6937C40.5291 12.1801 40.8587 12.9396 41.0481 14.6863C41.2449 16.5031 41.25 18.9011 41.25 22.5C41.25 26.0989 41.2449 28.4968 41.0481 30.3137C40.8587 32.0604 40.5291 32.82 40.1758 33.3064C39.8287 33.7837 39.4087 34.2037 38.9314 34.5508C38.445 34.9041 37.6854 35.2337 35.9387 35.4231C34.1218 35.6199 31.7239 35.625 28.125 35.625H16.875C13.2761 35.625 10.8781 35.6199 9.06129 35.4231C7.31462 35.2337 6.55509 34.9041 6.0687 34.5508C5.59118 34.2037 5.17123 33.7837 4.82428 33.3064C4.4709 32.82 4.14124 32.0604 3.95199 30.3137C3.75516 28.4968 3.75 26.0989 3.75 22.5C3.75 18.9011 3.75516 16.5031 3.95199 14.6863C4.14124 12.9396 4.4709 12.1801 4.82428 11.6937C5.17123 11.2162 5.59118 10.7962 6.0687 10.4493C6.55509 10.0959 7.31462 9.76624 9.06129 9.57699C10.8781 9.38016 13.2761 9.375 16.875 9.375Z" fill="#0F0F0F"/>
</g>
<defs>
<clipPath id="clip0_46_238">
<rect width="45" height="45" fill="white"/>
</clipPath>
</defs>
</svg>
